<svg width="200" height="68" viewBox="0 0 200 68" fill="none" xmlns="http://www.w3.org/2000/svg">
<g clip-path="url(#clip0_3406_211)">
<path fill-rule="evenodd" clip-rule="evenodd" d="M14.0239 16.3971L0 24.5572V9.5272L14.0239 1.36768V16.3971ZM14.0239 59.5788L0 67.7383V29.2167L14.0239 21.0571V59.5788Z" fill="#ED3237"/>
<path fill-rule="evenodd" clip-rule="evenodd" d="M33.0454 15.3395L19.0215 23.667V8.32752L33.0454 0V15.3395ZM33.0454 59.4105L19.0215 67.7381V28.4228L33.0454 20.0946V59.4105Z" fill="#F58634"/>
<path d="M63.4427 36.8676H54.8428V8.32812H63.4427V36.8676ZM103.828 36.8676H95.2284V20.3429L87.4648 29.9119H86.7829L78.9983 20.3429V36.8676H70.6517V8.32812H78.4431L87.219 19.036L96.0289 8.32812H103.828V36.8676ZM135.74 17.3079C135.74 18.3615 135.557 19.3942 135.192 20.4059C134.833 21.4102 134.244 22.3521 133.436 23.2235C132.62 24.0944 131.532 24.804 130.147 25.3451C128.77 25.8861 127.148 26.1604 125.278 26.1604H119.637V36.8676H111.037V8.32812H125.285C127.148 8.32812 128.77 8.60235 130.154 9.15019C131.532 9.69865 132.627 10.4151 133.436 11.2934C134.244 12.1716 134.833 13.1271 135.192 14.153C135.557 15.1857 135.74 16.2326 135.74 17.3079ZM126.972 17.3499C126.972 15.9867 126.571 15.0591 125.763 14.5606C124.962 14.0616 123.521 13.8084 121.449 13.8084H119.637V20.6801H121.491C122.918 20.6801 124.021 20.5887 124.786 20.4133C125.559 20.2373 126.114 19.9075 126.459 19.4226C126.803 18.9446 126.972 18.2485 126.972 17.3499ZM162.017 36.8676H140.511V8.32812H161.665V14.0616H149.111V19.2886H161.09V25.0221H149.111V31.1348H162.017V36.8676ZM199.999 36.8676H188.948L185.919 33.2915C185.821 33.1507 185.224 32.4207 184.128 31.0996C183.032 29.7784 182.301 28.8718 181.943 28.3943C180.299 30.6147 178.956 32.3713 177.91 33.6565L175.296 36.8676H164.406L176.512 22.0216L164.961 8.32812H175.956L177.91 10.7171C179.034 12.108 180.383 13.8436 181.943 15.9163C183.439 13.7176 184.634 12.087 185.526 11.0266L187.767 8.32812H198.559L187.465 22.0216L199.999 36.8676Z" fill="white"/>
<path d="M59.4009 59.2078H54.8428V44.0801H59.4009V59.2078ZM79.6462 59.2078H75.5791L67.7358 50.7839V59.2078H63.2222V44.0801H67.267L75.0875 52.4601V44.0801H79.6462V59.2078ZM94.0105 54.8133C94.0105 55.7595 93.769 56.5785 93.2847 57.2715C92.8005 57.9608 92.1261 58.4894 91.2626 58.8582C90.3942 59.2269 89.4042 59.4091 88.2825 59.4091C87.97 59.4091 87.5865 59.3906 87.1319 59.3492C86.6779 59.3084 86.0745 59.1973 85.3222 59.0144C84.5663 58.8359 83.7837 58.5636 82.9684 58.2097V54.5002C83.7318 54.9739 84.4841 55.3649 85.2216 55.6774C85.9627 55.9905 86.7521 56.1468 87.5976 56.1468C88.3758 56.1468 88.8792 56.0165 89.1096 55.7595C89.3368 55.4989 89.4523 55.2568 89.4523 55.0332C89.4523 54.6237 89.2547 54.2809 88.8637 54.0017C88.4728 53.722 87.9033 53.4317 87.1548 53.134C86.324 52.7838 85.594 52.4039 84.9683 51.9938C84.3427 51.5813 83.8288 51.0668 83.4341 50.4485C83.0352 49.8303 82.8381 49.1002 82.8381 48.2547C82.8381 47.4394 83.0389 46.702 83.4372 46.0467C83.8399 45.387 84.4508 44.862 85.2704 44.4674C86.093 44.0764 87.0985 43.8794 88.2825 43.8794C89.1281 43.8794 89.9063 43.9609 90.6215 44.1246C91.3404 44.2883 91.9327 44.4711 92.3984 44.6761C92.8635 44.8769 93.1804 45.0368 93.3551 45.1529V48.6981C92.7369 48.2547 92.0519 47.8563 91.2923 47.5098C90.532 47.1602 89.7204 46.9848 88.8526 46.9848C88.2863 46.9848 87.8768 47.0929 87.6198 47.3128C87.3666 47.5327 87.24 47.8007 87.24 48.1207C87.24 48.419 87.3666 48.6759 87.6198 48.8958C87.8768 49.1157 88.3313 49.38 88.9829 49.6925C90.149 50.2398 91.0761 50.7314 91.7765 51.1674C92.4725 51.6029 93.0204 52.1099 93.4151 52.6794C93.8134 53.2495 94.0105 53.9641 94.0105 54.8133ZM112.867 52.4336C112.867 53.73 112.625 54.8318 112.14 55.7447C111.656 56.6606 111.016 57.3833 110.218 57.912C109.425 58.445 108.565 58.8279 107.645 59.0589C106.725 59.2936 105.805 59.4091 104.889 59.4091C103.608 59.4091 102.364 59.1892 101.15 58.7538C99.9397 58.3184 98.9268 57.5766 98.1109 56.5266C97.2956 55.4797 96.8899 54.1129 96.8899 52.4336V44.0801H101.448V51.2527C101.448 52.2514 101.593 53.0741 101.88 53.7257C102.167 54.3773 102.565 54.8541 103.079 55.1561C103.59 55.4581 104.196 55.6101 104.893 55.6101C105.563 55.6101 106.156 55.4612 106.673 55.1635C107.187 54.8652 107.589 54.3927 107.876 53.7448C108.163 53.0963 108.308 52.2736 108.308 51.2755V44.0801H112.867V52.4336ZM131.089 59.2078H126.191L125 56.5266C124.564 55.5433 124.169 54.8244 123.819 54.3699C123.473 53.9159 123.131 53.625 122.799 53.4984C122.468 53.3724 122.043 53.3088 121.518 53.3088H121.004V59.2078H116.445V44.0801H124.203C125.454 44.0801 126.482 44.3334 127.279 44.8435C128.08 45.3537 128.657 45.9719 129.011 46.702C129.365 47.4283 129.54 48.1207 129.54 48.7766C129.54 49.54 129.391 50.1842 129.097 50.7129C128.802 51.2416 128.493 51.6257 128.165 51.8672C127.838 52.1062 127.469 52.3366 127.064 52.5528C127.551 52.8357 127.953 53.1747 128.27 53.562C128.587 53.9529 129.015 54.7392 129.563 55.9232L131.089 59.2078ZM124.892 48.8618C124.892 48.162 124.661 47.6741 124.203 47.3987C123.745 47.1226 123 46.9848 121.964 46.9848H121.004V50.627H121.987C123.101 50.627 123.864 50.5041 124.274 50.2626C124.688 50.0162 124.892 49.5511 124.892 48.8618ZM149.766 59.2078H145.096L143.863 56.1468H137.293L136.039 59.2078H131.368L138.057 44.0801H143.1L149.766 59.2078ZM142.817 53.5101L140.601 47.9903L138.363 53.5101H142.817ZM168.197 59.2078H164.131L156.287 50.7839V59.2078H151.774V44.0801H155.818L163.639 52.4601V44.0801H168.197V59.2078ZM185.53 58.0756C184.905 58.4036 184.264 58.6642 183.613 58.8613C182.957 59.0589 182.298 59.201 181.631 59.2825C180.964 59.3683 180.276 59.4091 179.564 59.4091C178.246 59.4091 177.065 59.2269 176.022 58.8613C174.979 58.5006 174.075 57.9645 173.307 57.253C172.54 56.5451 171.963 55.7151 171.583 54.7651C171.2 53.8152 171.009 52.7727 171.009 51.6368C171.009 50.3367 171.237 49.1972 171.687 48.2176C172.138 47.2381 172.767 46.4265 173.579 45.7786C174.391 45.1301 175.315 44.6539 176.35 44.3445C177.385 44.0357 178.48 43.8794 179.628 43.8794C181.344 43.8794 183.292 44.2586 185.467 45.0226V49.0335C184.719 48.5678 183.978 48.1806 183.247 47.8711C182.514 47.5623 181.654 47.4098 180.667 47.4098C179.784 47.4098 178.964 47.5846 178.201 47.9348C177.438 48.2812 176.823 48.7797 176.358 49.4282C175.892 50.0761 175.658 50.8321 175.658 51.6998C175.658 52.4638 175.862 53.1636 176.268 53.8004C176.674 54.4372 177.241 54.9399 177.966 55.3161C178.689 55.6922 179.504 55.8787 180.413 55.8787C181.151 55.8787 181.843 55.7892 182.498 55.6101C183.154 55.4316 183.705 55.2345 184.152 55.0184C184.6 54.7985 185.057 54.5416 185.53 54.2395V58.0756ZM199.999 59.2078H188.599V44.0801H199.813V47.1189H193.158V49.8902H199.508V52.9289H193.158V56.169H199.999V59.2078Z" fill="white"/>
</g>
<defs>
<clipPath id="clip0_3406_211">
<rect width="200" height="67.7383" fill="white"/>
</clipPath>
</defs>
</svg>
