<svg width="200" height="68" viewBox="0 0 200 68" fill="none" xmlns="http://www.w3.org/2000/svg">
<g clip-path="url(#clip0_3405_103)">
<path fill-rule="evenodd" clip-rule="evenodd" d="M14.0239 16.3969L0 24.557V9.52695L14.0239 1.36743V16.3969ZM14.0239 59.5785L0 67.7381V29.2164L14.0239 21.0569V59.5785Z" fill="#ED3237"/>
<path fill-rule="evenodd" clip-rule="evenodd" d="M33.0454 15.3395L19.0215 23.667V8.32752L33.0454 0V15.3395ZM33.0454 59.4105L19.0215 67.7381V28.4228L33.0454 20.0946V59.4105Z" fill="#F58634"/>
<path d="M63.4427 36.8676H54.8428V8.32812H63.4427V36.8676ZM103.828 36.8676H95.2284V20.3429L87.4648 29.9119H86.7829L78.9983 20.3429V36.8676H70.6517V8.32812H78.4431L87.219 19.036L96.0289 8.32812H103.828V36.8676ZM135.74 17.3079C135.74 18.3615 135.557 19.3942 135.192 20.4059C134.833 21.4102 134.244 22.3521 133.436 23.2235C132.62 24.0944 131.532 24.804 130.147 25.3451C128.77 25.8861 127.148 26.1604 125.278 26.1604H119.637V36.8676H111.037V8.32812H125.285C127.148 8.32812 128.77 8.60235 130.154 9.15019C131.532 9.69865 132.627 10.4151 133.436 11.2934C134.244 12.1716 134.833 13.1271 135.192 14.153C135.557 15.1857 135.74 16.2326 135.74 17.3079ZM126.972 17.3499C126.972 15.9867 126.571 15.0591 125.763 14.5606C124.962 14.0616 123.521 13.8084 121.449 13.8084H119.637V20.6801H121.491C122.918 20.6801 124.021 20.5887 124.786 20.4133C125.559 20.2373 126.114 19.9075 126.459 19.4226C126.803 18.9446 126.972 18.2485 126.972 17.3499ZM162.017 36.8676H140.511V8.32812H161.665V14.0616H149.111V19.2886H161.09V25.0221H149.111V31.1348H162.017V36.8676ZM199.999 36.8676H188.948L185.919 33.2915C185.821 33.1507 185.224 32.4207 184.128 31.0996C183.032 29.7784 182.301 28.8718 181.943 28.3943C180.299 30.6147 178.956 32.3713 177.91 33.6565L175.296 36.8676H164.406L176.512 22.0216L164.961 8.32812H175.956L177.91 10.7171C179.034 12.108 180.383 13.8436 181.943 15.9163C183.439 13.7176 184.634 12.087 185.526 11.0266L187.767 8.32812H198.559L187.465 22.0216L199.999 36.8676Z" fill="#373435"/>
<path d="M59.4009 59.208H54.8428V44.0804H59.4009V59.208ZM79.6462 59.208H75.5791L67.7358 50.7841V59.208H63.2222V44.0804H67.267L75.0875 52.4604V44.0804H79.6462V59.208ZM94.0105 54.8136C94.0105 55.7598 93.769 56.5787 93.2847 57.2717C92.8005 57.961 92.1261 58.4897 91.2626 58.8584C90.3942 59.2271 89.4042 59.4093 88.2825 59.4093C87.97 59.4093 87.5865 59.3908 87.1319 59.3494C86.6779 59.3087 86.0745 59.1975 85.3222 59.0147C84.5663 58.8362 83.7837 58.5638 82.9684 58.2099V54.5004C83.7318 54.9741 84.4841 55.3651 85.2216 55.6776C85.9627 55.9908 86.7521 56.147 87.5976 56.147C88.3758 56.147 88.8792 56.0167 89.1096 55.7598C89.3368 55.4991 89.4523 55.257 89.4523 55.0334C89.4523 54.6239 89.2547 54.2812 88.8637 54.002C88.4728 53.7222 87.9033 53.4319 87.1548 53.1342C86.324 52.784 85.594 52.4042 84.9683 51.9941C84.3427 51.5815 83.8288 51.067 83.4341 50.4488C83.0352 49.8305 82.8381 49.1005 82.8381 48.2549C82.8381 47.4397 83.0389 46.7022 83.4372 46.0469C83.8399 45.3873 84.4508 44.8623 85.2704 44.4676C86.093 44.0767 87.0985 43.8796 88.2825 43.8796C89.1281 43.8796 89.9063 43.9612 90.6215 44.1248C91.3404 44.2885 91.9327 44.4713 92.3984 44.6764C92.8635 44.8771 93.1804 45.0371 93.3551 45.1532V48.6984C92.7369 48.2549 92.0519 47.8566 91.2923 47.5101C90.532 47.1605 89.7204 46.9851 88.8526 46.9851C88.2863 46.9851 87.8768 47.0932 87.6198 47.313C87.3666 47.5329 87.24 47.801 87.24 48.1209C87.24 48.4192 87.3666 48.6762 87.6198 48.896C87.8768 49.1159 88.3313 49.3803 88.9829 49.6928C90.149 50.24 91.0761 50.7316 91.7765 51.1677C92.4725 51.6031 93.0204 52.1102 93.4151 52.6796C93.8134 53.2497 94.0105 53.9643 94.0105 54.8136ZM112.867 52.4338C112.867 53.7302 112.625 54.8321 112.14 55.7449C111.656 56.6609 111.016 57.3835 110.218 57.9122C109.425 58.4452 108.565 58.8282 107.645 59.0591C106.725 59.2938 105.805 59.4093 104.889 59.4093C103.608 59.4093 102.364 59.1895 101.15 58.754C99.9397 58.3186 98.9268 57.5768 98.1109 56.5269C97.2956 55.48 96.8899 54.1132 96.8899 52.4338V44.0804H101.448V51.2529C101.448 52.2516 101.593 53.0743 101.88 53.7259C102.167 54.3775 102.565 54.8543 103.079 55.1563C103.59 55.4584 104.196 55.6103 104.893 55.6103C105.563 55.6103 106.156 55.4615 106.673 55.1638C107.187 54.8654 107.589 54.3929 107.876 53.7451C108.163 53.0965 108.308 52.2739 108.308 51.2758V44.0804H112.867V52.4338ZM131.089 59.208H126.191L125 56.5269C124.564 55.5436 124.169 54.8247 123.819 54.3701C123.473 53.9161 123.131 53.6252 122.799 53.4986C122.468 53.3726 122.043 53.309 121.518 53.309H121.004V59.208H116.445V44.0804H124.203C125.454 44.0804 126.482 44.3336 127.279 44.8438C128.08 45.3539 128.657 45.9722 129.011 46.7022C129.365 47.4285 129.54 48.1209 129.54 48.7768C129.54 49.5402 129.391 50.1844 129.097 50.7131C128.802 51.2418 128.493 51.626 128.165 51.8675C127.838 52.1065 127.469 52.3369 127.064 52.553C127.551 52.8359 127.953 53.175 128.27 53.5622C128.587 53.9532 129.015 54.7394 129.563 55.9234L131.089 59.208ZM124.892 48.8621C124.892 48.1623 124.661 47.6744 124.203 47.3989C123.745 47.1228 123 46.9851 121.964 46.9851H121.004V50.6273H121.987C123.101 50.6273 123.864 50.5043 124.274 50.2629C124.688 50.0164 124.892 49.5513 124.892 48.8621ZM149.766 59.208H145.096L143.863 56.147H137.293L136.039 59.208H131.368L138.057 44.0804H143.1L149.766 59.208ZM142.817 53.5104L140.601 47.9906L138.363 53.5104H142.817ZM168.197 59.208H164.131L156.287 50.7841V59.208H151.774V44.0804H155.818L163.639 52.4604V44.0804H168.197V59.208ZM185.53 58.0759C184.905 58.4038 184.264 58.6645 183.613 58.8615C182.957 59.0592 182.298 59.2012 181.631 59.2827C180.964 59.3686 180.276 59.4093 179.564 59.4093C178.246 59.4093 177.065 59.2271 176.022 58.8615C174.979 58.5008 174.075 57.9647 173.307 57.2532C172.54 56.5454 171.963 55.7153 171.583 54.7654C171.2 53.8155 171.009 52.7729 171.009 51.6371C171.009 50.337 171.237 49.1974 171.687 48.2179C172.138 47.2383 172.767 46.4267 173.579 45.7789C174.391 45.1303 175.315 44.6541 176.35 44.3447C177.385 44.0359 178.48 43.8796 179.628 43.8796C181.344 43.8796 183.292 44.2589 185.467 45.0229V49.0338C184.719 48.5681 183.978 48.1808 183.247 47.8714C182.514 47.5626 181.654 47.41 180.667 47.41C179.784 47.41 178.964 47.5848 178.201 47.935C177.438 48.2815 176.823 48.7799 176.358 49.4284C175.892 50.0763 175.658 50.8323 175.658 51.7001C175.658 52.4641 175.862 53.1639 176.268 53.8006C176.674 54.4374 177.241 54.9402 177.966 55.3163C178.689 55.6924 179.504 55.879 180.413 55.879C181.151 55.879 181.843 55.7894 182.498 55.6103C183.154 55.4318 183.705 55.2348 184.152 55.0186C184.6 54.7987 185.057 54.5418 185.53 54.2398V58.0759ZM199.999 59.208H188.599V44.0804H199.813V47.1191H193.158V49.8904H199.508V52.9292H193.158V56.1693H199.999V59.208Z" fill="#373435"/>
</g>
<defs>
<clipPath id="clip0_3405_103">
<rect width="200" height="67.7383" fill="white"/>
</clipPath>
</defs>
</svg>
